<?xml version="1.0" standalone="no"?>
<!DOCTYPE svg PUBLIC "-//W3C//DTD SVG 20010904//EN"
 "http://www.w3.org/TR/2001/REC-SVG-20010904/DTD/svg10.dtd">
<svg version="1.0" xmlns="http://www.w3.org/2000/svg"
 width="170.000000pt" height="170.000000pt" viewBox="0 0 170.000000 170.000000"
 preserveAspectRatio="xMidYMid meet">
<metadata>
Created by potrace 1.14, written by Peter Selinger 2001-2017
</metadata>
<g transform="translate(0.000000,170.000000) scale(0.100000,-0.100000)"
fill="#000000" stroke="none">
<path d="M343 1103 c-17 -7 -34 -17 -38 -23 -3 -5 4 -40 15 -77 12 -38 23 -88
26 -113 4 -38 1 -35 -15 25 -11 39 -27 87 -35 108 -14 32 -19 35 -34 26 -9 -6
-27 -24 -40 -40 l-22 -28 28 -33 c37 -42 85 -118 79 -125 -3 -3 -11 5 -17 18
-16 29 -90 109 -102 109 -8 0 -17 -18 -32 -66 -5 -18 -2 -23 20 -28 27 -7 107
-56 101 -63 -2 -2 -24 8 -48 22 -24 13 -54 25 -66 25 -20 0 -23 -5 -23 -43 l0
-43 72 1 c68 1 73 0 98 -29 15 -17 31 -44 37 -60 13 -40 31 -44 39 -9 4 15 19
42 35 59 l29 30 -31 32 c-18 18 -29 35 -27 38 3 3 13 -2 22 -11 9 -9 16 -13
16 -8 0 5 23 32 52 61 37 37 54 49 60 40 12 -20 10 -24 -16 -36 -31 -14 -96
-71 -96 -85 0 -6 12 1 28 15 29 28 99 68 119 68 9 0 8 12 -4 45 -8 25 -19 45
-25 45 -12 0 -63 -54 -95 -103 -14 -20 -28 -35 -30 -33 -7 7 42 86 77 125 16
18 30 39 30 45 0 7 -16 27 -35 46 l-35 33 -16 -39 c-9 -21 -25 -64 -35 -94
l-18 -55 5 44 c4 25 15 69 25 100 11 30 19 55 19 57 0 1 -15 11 -33 21 -28 17
-36 18 -64 6z m46 -32 c10 -6 11 -18 6 -37 -10 -40 -12 -52 -19 -109 -9 -62
-16 -71 -16 -19 -1 53 -10 115 -21 135 -15 28 20 49 50 30z m-78 -162 c18 -49
35 -86 38 -81 12 18 41 22 41 6 0 -10 -6 -14 -14 -11 -7 3 -28 -9 -45 -27 -33
-34 -39 -35 -106 -22 -49 10 -57 15 -50 26 3 6 28 1 55 -9 44 -17 49 -17 55
-3 6 16 -44 67 -77 78 -10 3 -18 14 -18 25 0 28 26 12 86 -53 26 -29 44 -45
41 -35 -4 11 -3 16 3 12 6 -3 10 -4 10 0 0 10 -52 109 -72 138 -16 22 -17 31
-8 42 7 8 16 13 20 10 5 -3 23 -46 41 -96z m176 85 c3 -9 -2 -28 -11 -43 -9
-14 -29 -51 -43 -81 -38 -78 -39 -48 -2 54 31 85 44 101 56 70z m-93 -223 c17
-19 17 -21 -1 -45 -23 -32 -27 -32 -48 0 -16 24 -16 27 1 45 21 24 27 24 48 0z"/>
<path d="M859 1088 c0 -2 -2 -33 -3 -69 -2 -61 -1 -65 18 -64 17 1 20 7 18 28
-2 19 1 27 12 27 11 0 16 -9 16 -29 0 -22 4 -29 18 -27 14 2 17 13 18 57 0 65
-4 79 -22 79 -9 0 -14 -11 -14 -30 0 -20 -5 -30 -15 -30 -10 0 -15 10 -15 30
0 20 -5 30 -15 30 -8 0 -15 -1 -16 -2z"/>
<path d="M990 1070 c-11 -11 -20 -33 -20 -48 0 -33 32 -72 60 -72 20 0 49 24
51 43 1 7 3 22 4 34 3 27 -29 63 -55 63 -11 0 -29 -9 -40 -20z m56 -25 c8 -33
-3 -77 -19 -72 -13 4 -22 60 -13 83 8 22 25 16 32 -11z"/>
<path d="M1086 1083 c-12 -12 -6 -21 13 -16 16 4 18 -2 18 -53 -1 -46 3 -58
16 -60 14 -2 17 7 17 57 0 44 4 59 14 59 8 0 17 -6 19 -12 3 -7 6 -4 6 7 1 18
-6 21 -48 22 -27 1 -51 -1 -55 -4z"/>
<path d="M1203 1021 c2 -65 2 -65 32 -67 40 -2 55 5 54 25 0 10 -2 11 -6 4 -8
-22 -43 -15 -43 8 0 15 5 19 15 15 10 -4 15 1 15 14 0 13 -5 18 -15 14 -10 -4
-15 0 -15 15 0 23 19 28 38 9 7 -7 12 -8 12 -2 0 21 -17 31 -52 31 l-37 0 2
-66z"/>
<path d="M1313 1021 l-2 -68 37 1 c36 1 52 10 52 30 0 6 -5 5 -12 -2 -27 -27
-38 -13 -38 48 0 51 -3 60 -18 60 -15 0 -18 -10 -19 -69z"/>
<path d="M710 905 c-6 -8 -8 -20 -4 -27 4 -6 7 -29 5 -50 -2 -36 0 -38 28 -38
44 0 61 10 61 36 0 16 -9 28 -30 39 -29 15 -36 26 -24 38 10 9 34 -4 34 -19 0
-8 5 -14 10 -14 13 0 9 32 -5 42 -17 13 -62 9 -75 -7z m45 -71 c17 -12 18 -16
5 -24 -17 -10 -40 5 -40 26 0 18 10 17 35 -2z"/>
<path d="M815 873 c1 -27 6 -56 10 -65 9 -23 58 -24 76 -2 17 21 19 114 3 114
-8 0 -11 -16 -9 -44 3 -52 -6 -71 -30 -62 -13 5 -16 16 -13 56 3 46 1 50 -19
50 -19 0 -21 -5 -18 -47z"/>
<path d="M935 855 c0 -60 2 -65 22 -65 15 0 21 5 17 14 -3 9 6 17 25 24 16 6
34 20 40 31 17 30 -17 61 -66 61 l-38 0 0 -65z m69 8 c-17 -28 -31 -26 -32 4
0 39 8 48 27 29 12 -12 13 -21 5 -33z"/>
<path d="M1055 855 c0 -60 2 -65 22 -65 16 0 21 5 18 20 -5 28 10 25 23 -5 13
-28 24 -31 41 -11 9 10 8 15 -4 20 -19 7 -19 23 0 43 27 26 -2 57 -56 61 l-44
3 0 -66z m75 30 c0 -7 -6 -18 -14 -24 -10 -9 -15 -8 -20 4 -3 8 -3 21 0 29 7
17 34 10 34 -9z"/>
<path d="M1184 855 l1 -65 42 0 c31 0 43 4 43 15 0 11 -5 12 -25 5 -22 -8 -25
-7 -25 11 0 17 5 20 21 16 15 -4 19 -2 15 10 -3 8 -6 16 -6 19 0 2 -7 1 -15
-2 -10 -4 -15 0 -15 14 0 29 21 38 37 17 12 -18 13 -18 13 3 0 19 -5 22 -43
22 l-44 0 1 -65z"/>
<path d="M1294 855 c0 -44 4 -65 12 -65 8 0 11 11 9 30 -2 17 -2 30 1 30 3 0
10 -13 15 -30 14 -38 21 -38 42 3 l18 32 -5 -32 c-5 -29 -3 -33 17 -33 20 0
22 4 22 65 0 56 -3 65 -18 65 -11 0 -24 -14 -34 -37 l-16 -38 -12 35 c-7 22
-19 36 -31 38 -18 3 -20 -3 -20 -63z"/>
<path d="M1445 855 l0 -65 45 0 c39 0 46 3 47 20 2 18 0 19 -13 5 -20 -19 -30
-19 -38 1 -9 24 -8 27 14 21 16 -4 20 0 20 21 0 19 -3 23 -9 13 -17 -26 -32
-1 -22 37 1 1 10 -2 21 -8 16 -9 20 -8 20 5 0 11 -11 15 -42 15 l-43 0 0 -65z"/>
<path d="M518 821 c-44 -22 -71 -47 -64 -59 2 -4 35 -7 73 -7 l68 1 0 40 c0
47 -20 54 -77 25z m42 -25 c0 -7 -14 -16 -32 -19 -18 -3 -42 -9 -53 -13 -15
-5 -17 -4 -9 5 9 10 71 37 92 41 1 0 2 -6 2 -14z"/>
<path d="M671 736 c-12 -12 -21 -34 -21 -47 0 -56 77 -93 100 -48 15 27 4 38
-14 14 -29 -40 -61 14 -40 69 8 20 33 21 40 1 9 -21 20 -19 20 5 0 11 -7 20
-16 21 -8 0 -23 2 -32 4 -9 2 -26 -7 -37 -19z"/>
<path d="M790 742 c-29 -23 -30 -77 -2 -105 16 -16 25 -18 48 -10 58 19 62
103 7 124 -31 11 -27 12 -53 -9z m50 -33 c8 -28 -4 -69 -20 -69 -10 0 -12 7
-13 45 0 43 3 57 15 53 7 -3 15 -15 18 -29z"/>
<path d="M905 754 c-13 -5 -10 -127 3 -132 5 -1 8 12 7 30 -3 30 -2 31 11 13
8 -10 14 -25 14 -32 0 -24 27 -2 38 30 l10 32 1 -37 c1 -28 5 -36 18 -34 15 2
18 14 18 62 0 53 -7 73 -27 74 -3 0 -12 -16 -18 -35 -14 -43 -26 -45 -35 -6
-6 29 -21 41 -40 35z"/>
<path d="M1050 691 c0 -58 2 -67 19 -68 15 -1 18 4 16 29 -2 25 0 29 16 25 13
-4 19 0 19 13 0 13 -5 17 -19 13 -15 -4 -19 0 -17 13 3 23 23 29 41 14 12 -10
15 -9 15 4 0 9 -6 16 -12 17 -7 1 -28 2 -45 4 l-33 3 0 -67z"/>
<path d="M1165 735 c-28 -27 -30 -42 -14 -79 13 -28 51 -41 78 -27 36 20 37
91 2 118 -24 18 -39 16 -66 -12z m50 -45 c0 -25 -5 -45 -12 -47 -16 -6 -27 39
-19 73 10 40 31 23 31 -26z"/>
<path d="M1273 692 c2 -52 5 -67 17 -67 8 0 18 11 21 25 l6 25 11 -27 c11 -26
31 -36 45 -22 3 4 -1 17 -10 30 -8 13 -11 24 -5 24 5 0 15 14 22 30 20 48 36
37 35 -22 -2 -62 -1 -68 23 -62 14 4 16 14 14 59 -2 31 0 55 6 55 20 0 36 -33
34 -70 -2 -34 0 -38 28 -43 72 -15 94 39 30 77 -32 18 -39 36 -16 36 8 0 22
-10 30 -22 l16 -22 0 26 c0 21 -6 28 -30 33 -18 4 -36 2 -44 -4 -7 -6 -16 -8
-20 -4 -4 4 -29 8 -57 8 -36 0 -49 -3 -49 -13 0 -11 -3 -12 -14 -3 -8 6 -32
13 -54 16 l-40 4 1 -67z m66 35 c8 -10 7 -17 -1 -25 -19 -19 -28 -14 -28 13 0
27 12 32 29 12z m194 -51 c20 -16 23 -36 4 -36 -17 0 -37 20 -37 37 0 16 10
16 33 -1z"/>
</g>
</svg>
